PathFileType	4	(X/Y/Z)	C:/Users/beibeiliu/ov580/test_trc/User2\sequence.26_training_dense_right.trc
DataRate	CameraRate	NumFrames	NumMarkers	Units	OrigDataRate	OrigDataStartFrame	OrigNumFrames
120	120	14	19	mm	120	316	361
Frame#	Time	ThumbCMC			ThumbMCP			ThumbIP			ThumbTip			IndexMCP			IndexPIP			IndexTip			MiddleMCP			MiddlePIP			MiddleTip			RingMCP			RingPIP			RingTip			PinkyMCP			PinkyPIP			PinkyTip			BackHand1			BackHand2			BackHand3	
		X0	Y0	Z0	X1	Y1	Z1	X2	Y2	Z2	X3	Y3	Z3	X4	Y4	Z4	X5	Y5	Z5	X6	Y6	Z6	X7	Y7	Z7	X8	Y8	Z8	X9	Y9	Z9	X10	Y10	Z10	X11	Y11	Z11	X12	Y12	Z12	X13	Y13	Z13	X14	Y14	Z14	X15	Y15	Z15	X16	Y16	Z16	X17	Y17	Z17	X18	Y18	Z18	
315	2.625	48.2092	-28.3251	102.182	21.8726	-30.658	86.1895	-3.49956	-32.0418	61.5164	-25.8895	-35.2903	48.1426	45.2592	-17.6247	13.5163	38.6147	-20.103	-9.63552	28.5006	-20.8157	-40.4315	69.3088	-17.147	3.90074	65.3975	-20.5077	-29.0667	58.7731	-21.8446	-55.6156	101.322	-28.004	0.625192	99.0974	-32.3687	-20.4405	95.7759	-35.4195	-52.6526	124.647	-41.185	15.8818	129.236	-48.0153	-6.43536	141.525	-48.7228	-29.7161	106.502	-16.4189	58.3454	112.692	-13.3486	93.0697	74.7544	-6.34562	79.21	
316	2.63333	46.1507	-29.6661	103.985	21.346	-32.1309	84.9759	-5.80817	-33.8378	66.2256	-26.9379	-37.7697	49.7902	36.4999	-19.4615	13.6551	27.6549	-23.5932	-11.133	24.0707	-27.5662	-37.7115	60.2158	-15.5964	4.53771	55.7461	-17.0003	-22.3212	50.6495	-15.9051	-54.2549	92.6879	-22.8097	2.89026	93.8921	-23.0707	-21.9592	92.5199	-22.2007	-52.9097	119.387	-35.8257	15.0508	124.732	-38.4054	-4.10935	135.46	-34.6474	-29.3632	104.262	-15.9394	63.0392	111.931	-10.7341	95.0909	69.475	-7.60273	81.0217	
317	2.64167	44.9186	-30.4205	101.357	16.0242	-29.868	86.3104	-10.5339	-32.2965	62.8474	-23.7768	-38.0028	48.1671	35.2189	-18.2876	14.9902	27.2163	-23.4086	-7.2912	19.4989	-30.4859	-32.5344	58.5445	-12.3273	2.696	52.5137	-13.6303	-24.2346	43.9334	-10.4962	-53.4982	87.0394	-19.2479	7.99245	88.4134	-17.6524	-22.7371	82.9417	-13.7126	-50.9013	116.682	-32.6316	17.4825	120.025	-33.0829	-6.37468	123.62	-27.8964	-30.2247	103.557	-14.4236	57.7439	111.826	-10.4001	91.2081	69.8146	-9.01941	80.6419	
318	2.65	43.8605	-28.2488	100.768	17.8256	-30.9225	90.0819	-9.1898	-32.9843	63.9975	-25.9631	-38.7692	50.7254	35.4417	-17.7531	15.9811	26.0734	-24.5104	-9.82031	17.5915	-32.2196	-35.6755	58.0816	-10.9108	4.52124	47.3064	-10.7872	-19.8452	39.6149	-4.38084	-51.8684	87.17	-18.5259	7.4145	81.5061	-14.5906	-21.3393	76.0707	-8.4575	-48.5976	114.607	-31.858	17.0778	120.303	-31.9594	-6.01119	120.351	-24.9276	-30.2305	98.2924	-15.0548	60.7883	108.629	-12.3243	90.433	72.0015	-8.60493	80.4461	
319	2.65833	43.5713	-29.5983	106.283	17.0511	-31.5339	88.6612	-10.977	-33.4111	67.4002	-29.9023	-39.6952	54.467	35.777	-17.8367	18.9687	24.5799	-24.3834	-5.08147	11.0241	-32.2774	-33.0014	55.1445	-9.86494	9.40966	45.0091	-7.16075	-21.6909	37.7934	-1.6614	-46.3605	82.1957	-16.2168	4.3619	83.9608	-14.4552	-19.6963	77.7545	-7.94929	-49.0765	112.124	-33.1561	18.8762	116.387	-32.2791	-5.87488	118.564	-24.8924	-27.7295	98.1176	-14.9369	59.9406	111.421	-11.7251	92.4904	71.128	-8.18872	83.0369	
320	2.66667	41.8343	-27.6634	101.469	17.4129	-32.5003	89.6226	-9.21711	-36.2545	67.7871	-29.2924	-40.904	53.681	34.9386	-17.6851	17.2178	19.7276	-23.384	-5.77504	11.5534	-30.7701	-30.6873	55.1732	-7.61298	5.95187	47.4901	-4.99326	-19.1261	39.5218	1.3111	-48.3284	87.7518	-16.8269	4.33681	86.0284	-14.7605	-20.9245	79.7189	-7.98973	-48.4353	109.553	-32.7479	18.6204	114.227	-33.2393	-5.73085	120.489	-25.3793	-30.3057	97.6548	-15.4213	60.9338	110.204	-13.4188	92.4062	70.0821	-6.99783	85.6875	
321	2.675	42.4742	-29.3653	104.286	17.2353	-34.2518	89.7537	-11.929	-38.5289	68.2157	-30.2813	-45.0397	51.6289	33.4191	-16.916	18.7506	21.0661	-23.3527	-9.07778	10.345	-29.3627	-30.5009	60.922	-7.66254	3.88452	53.0906	-5.30453	-22.0558	46.2325	2.28748	-50.7983	84.9476	-17.4656	6.54049	86.5767	-14.9985	-21.0981	80.6574	-11.2326	-44.8532	111.23	-33.7976	13.7913	116.847	-34.847	-7.71594	120.25	-28.212	-31.6961	99.3636	-13.8669	60.7191	109.285	-10.8024	90.3399	73.0653	-7.54809	81.2293	
322	2.68333	41.1157	-29.5244	101.099	18.8037	-38.0987	86.2224	-10.574	-45.3298	66.4363	-25.1544	-53.6666	52.4365	36.2068	-16.4265	18.9584	19.9914	-20.8785	-7.85398	13.9657	-27.2591	-31.7779	59.1689	-7.69734	4.82778	52.8313	-4.01089	-23.0622	46.5795	3.23693	-53.5586	88.6684	-17.8863	3.28711	87.7562	-16.0454	-23.4938	83.6674	-10.9341	-49.4892	115.951	-35.267	14.26	115.425	-37.1853	-6.99766	124.646	-32.2844	-33.3916	103.688	-15.3056	57.7071	111.49	-11.0831	87.9065	74.9449	-8.07487	83.5395	
323	2.69167	43.0396	-32.3431	101.422	18.0455	-43.4445	84.665	-5.49482	-55.0602	68.4357	-25.0794	-65.7494	51.2308	34.7711	-15.8062	16.7594	23.1552	-20.2747	-9.10555	11.7986	-26.0647	-34.5866	64.4464	-8.68093	6.46026	54.4263	-5.21298	-25.575	50.9217	0.0450889	-51.3044	90.6388	-19.0632	6.30669	85.9794	-17.3879	-22.3312	87.781	-14.3616	-47.8494	115.998	-35.8234	14.6288	115.821	-36.9456	-9.64723	124.15	-33.1338	-32.9821	99.3829	-14.5896	59.1732	109.044	-10.4103	88.3462	72.4034	-6.31905	84.6493	
324	2.7	41.9604	-35.1303	97.9099	16.1673	-50.2702	83.7922	-2.92941	-66.5987	64.6223	-20.0175	-79.7398	49.7119	33.1652	-16.5368	17.8614	19.7565	-19.9208	-9.01062	11.4882	-24.7876	-36.0602	63.0369	-9.96113	4.59268	56.2233	-6.266	-26.843	53.3406	-1.94039	-50.8355	90.3397	-19.599	4.2435	91.6874	-19.078	-20.9443	86.3803	-15.0647	-47.9608	112.846	-35.3382	13.0303	118.43	-38.9473	-10.3552	122.699	-37.1048	-30.5874	103.898	-18.1872	58.9849	110.612	-11.8879	87.549	70.7743	-8.90468	79.0949	
325	2.70833	43.8027	-37.4377	100.869	19.5234	-57.8742	84.1905	0.0313017	-77.0678	64.6906	-13.087	-92.5186	47.2578	31.1496	-18.3572	16.9002	23.2164	-21.7024	-6.89048	12.2024	-27.5832	-32.4023	61.6218	-11.0797	3.62164	56.256	-7.84713	-26.185	54.5904	-3.39635	-52.2011	87.6028	-20.783	4.93961	87.4623	-19.9191	-19.4707	87.7221	-16.2106	-50.6429	115.874	-37.4184	12.6817	117.756	-38.8002	-11.4077	121.325	-37.0477	-36.4745	101.282	-17.5692	56.913	111.323	-12.9626	85.7393	70.0129	-8.56492	79.3171	
326	2.71667	43.1675	-40.5511	102.252	24.1144	-64.1344	81.7419	6.77976	-83.6769	58.5244	-1.29602	-99.1921	42.8607	34.3868	-20.0623	14.8106	22.5294	-23.8184	-5.91018	8.17489	-30.2921	-28.618	63.9331	-11.9909	7.03633	57.6392	-7.91554	-26.8587	51.4156	-1.81553	-52.7372	89.0361	-21.3733	7.42155	90.6306	-18.2291	-20.4414	85.4064	-14.4679	-48.1448	115.54	-36.571	12.9071	116.906	-38.3095	-12.8474	120.983	-33.6337	-32.0205	99.6624	-18.5635	58.6978	113.558	-12.7266	88.0445	75.8837	-10.0231	82.1395	
327	2.725	46.95	-42.3343	97.053	23.9262	-66.7239	84.3417	12.4758	-86.1139	60.45	4.67835	-102.718	37.5472	31.5475	-19.0778	20.8552	19.0432	-24.3245	-4.66649	4.44971	-31.9646	-28.6444	62.9151	-9.77745	5.57944	54.622	-5.66867	-20.39	48.9448	0.536761	-52.5512	89.1445	-18.6147	5.13213	83.5044	-14.6163	-18.1019	80.6123	-9.79459	-46.3963	113.67	-35.1391	14.1524	115.901	-35.4653	-10.559	117.815	-30.2932	-36.551	103.485	-17.9931	57.7049	109.39	-11.3571	88.5058	74.0214	-9.44363	80.3585	
328	2.73333	46.6333	-42.2917	99.1787	29.1551	-65.5877	79.9205	13.9504	-85.3895	58.1287	4.15056	-103.203	37.4366	29.3828	-18.3505	22.9985	14.901	-24.2222	-3.17951	2.59623	-34.0555	-26.1018	61.2649	-6.59017	8.24228	48.6169	-1.73965	-22.1292	45.2061	4.73644	-48.6786	82.707	-13.9468	5.54305	84.5092	-11.5365	-18.052	78.2233	-3.4169	-48.6817	108.561	-32.7598	16.1272	111.312	-31.1554	-12.604	114.66	-25.1065	-30.1222	101.036	-16.7798	60.0524	113.343	-13.2708	87.6212	72.8397	-10.1191	82.3491	
